<mxfile host="app.diagrams.net" modified="2024-05-02T15:29:33.920Z" agent="Mozilla/5.0 (Macintosh; Intel Mac OS X 10_15_7) AppleWebKit/605.1.15 (KHTML, like Gecko) Version/17.4.1 Safari/605.1.15" etag="EVPz55monHYXgDDApNu2" version="24.3.1" type="device">
  <diagram name="Sayfa -1" id="09cGcTuayJ8FmA4S7MyR">
    <mxGraphModel dx="1363" dy="964" grid="1" gridSize="10" guides="1" tooltips="1" connect="1" arrows="1" fold="1" page="1" pageScale="1" pageWidth="827" pageHeight="1169" math="0" shadow="0">
      <root>
        <mxCell id="0" />
        <mxCell id="1" parent="0" />
        <mxCell id="9A1M-4sTBxTM3sOWAQV7-59" value="" style="edgeStyle=orthogonalEdgeStyle;rounded=0;orthogonalLoop=1;jettySize=auto;html=1;endArrow=none;endFill=0;exitX=-0.035;exitY=0.46;exitDx=0;exitDy=0;exitPerimeter=0;" parent="1" source="9A1M-4sTBxTM3sOWAQV7-2" target="9A1M-4sTBxTM3sOWAQV7-58" edge="1">
          <mxGeometry relative="1" as="geometry">
            <mxPoint x="430" y="80" as="sourcePoint" />
          </mxGeometry>
        </mxCell>
        <mxCell id="9A1M-4sTBxTM3sOWAQV7-2" value="&lt;font style=&quot;font-size: 12px;&quot;&gt;User&lt;/font&gt;" style="rounded=0;whiteSpace=wrap;html=1;" parent="1" vertex="1">
          <mxGeometry x="470" y="80" width="80" height="40" as="geometry" />
        </mxCell>
        <mxCell id="9A1M-4sTBxTM3sOWAQV7-7" value="ISA" style="triangle;whiteSpace=wrap;html=1;rotation=-90;" parent="1" vertex="1">
          <mxGeometry x="471.25" y="158.75" width="75" height="77.5" as="geometry" />
        </mxCell>
        <mxCell id="mBqI3M3A36pS66uR8SRv-7" style="edgeStyle=orthogonalEdgeStyle;rounded=0;orthogonalLoop=1;jettySize=auto;html=1;exitX=1;exitY=0.5;exitDx=0;exitDy=0;entryX=0.5;entryY=0;entryDx=0;entryDy=0;endArrow=none;endFill=0;strokeWidth=5;" edge="1" parent="1" source="9A1M-4sTBxTM3sOWAQV7-8" target="mBqI3M3A36pS66uR8SRv-5">
          <mxGeometry relative="1" as="geometry" />
        </mxCell>
        <mxCell id="mBqI3M3A36pS66uR8SRv-9" style="edgeStyle=orthogonalEdgeStyle;rounded=0;orthogonalLoop=1;jettySize=auto;html=1;exitX=0;exitY=1;exitDx=0;exitDy=0;entryX=0.5;entryY=0;entryDx=0;entryDy=0;endArrow=none;endFill=0;" edge="1" parent="1" source="9A1M-4sTBxTM3sOWAQV7-8" target="9A1M-4sTBxTM3sOWAQV7-37">
          <mxGeometry relative="1" as="geometry">
            <Array as="points">
              <mxPoint x="360" y="320" />
              <mxPoint x="360" y="379" />
              <mxPoint x="185" y="379" />
            </Array>
          </mxGeometry>
        </mxCell>
        <mxCell id="9A1M-4sTBxTM3sOWAQV7-8" value="Players" style="rounded=0;whiteSpace=wrap;html=1;" parent="1" vertex="1">
          <mxGeometry x="350" y="280" width="80" height="40" as="geometry" />
        </mxCell>
        <mxCell id="9A1M-4sTBxTM3sOWAQV7-53" value="" style="edgeStyle=orthogonalEdgeStyle;rounded=0;orthogonalLoop=1;jettySize=auto;html=1;" parent="1" source="9A1M-4sTBxTM3sOWAQV7-9" target="9A1M-4sTBxTM3sOWAQV7-52" edge="1">
          <mxGeometry relative="1" as="geometry" />
        </mxCell>
        <mxCell id="9A1M-4sTBxTM3sOWAQV7-9" value="Coaches" style="rounded=0;whiteSpace=wrap;html=1;" parent="1" vertex="1">
          <mxGeometry x="590" y="280" width="80" height="40" as="geometry" />
        </mxCell>
        <mxCell id="9A1M-4sTBxTM3sOWAQV7-10" value="Juries" style="rounded=0;whiteSpace=wrap;html=1;" parent="1" vertex="1">
          <mxGeometry x="471.25" y="280" width="80" height="40" as="geometry" />
        </mxCell>
        <mxCell id="9A1M-4sTBxTM3sOWAQV7-12" value="Channel" style="rounded=0;whiteSpace=wrap;html=1;" parent="1" vertex="1">
          <mxGeometry x="590" y="680" width="80" height="40" as="geometry" />
        </mxCell>
        <mxCell id="9A1M-4sTBxTM3sOWAQV7-56" value="" style="edgeStyle=orthogonalEdgeStyle;rounded=0;orthogonalLoop=1;jettySize=auto;html=1;strokeWidth=5;" parent="1" source="9A1M-4sTBxTM3sOWAQV7-14" target="9A1M-4sTBxTM3sOWAQV7-55" edge="1">
          <mxGeometry relative="1" as="geometry" />
        </mxCell>
        <mxCell id="9A1M-4sTBxTM3sOWAQV7-14" value="Team" style="rounded=0;whiteSpace=wrap;html=1;" parent="1" vertex="1">
          <mxGeometry x="590" y="480" width="80" height="40" as="geometry" />
        </mxCell>
        <mxCell id="9A1M-4sTBxTM3sOWAQV7-67" value="" style="edgeStyle=orthogonalEdgeStyle;rounded=0;orthogonalLoop=1;jettySize=auto;html=1;endArrow=none;endFill=0;" parent="1" edge="1">
          <mxGeometry relative="1" as="geometry">
            <mxPoint x="41" y="478" as="sourcePoint" />
            <mxPoint x="41" y="537.9999999999998" as="targetPoint" />
          </mxGeometry>
        </mxCell>
        <mxCell id="9A1M-4sTBxTM3sOWAQV7-15" value="Position" style="rounded=0;whiteSpace=wrap;html=1;" parent="1" vertex="1">
          <mxGeometry x="25" y="438" width="80" height="40" as="geometry" />
        </mxCell>
        <mxCell id="9A1M-4sTBxTM3sOWAQV7-11" value="Match Session" style="rounded=0;whiteSpace=wrap;html=1;" parent="1" vertex="1">
          <mxGeometry x="350" y="518" width="80" height="40" as="geometry" />
        </mxCell>
        <mxCell id="9A1M-4sTBxTM3sOWAQV7-13" value="Stadium" style="rounded=0;whiteSpace=wrap;html=1;" parent="1" vertex="1">
          <mxGeometry x="350" y="708" width="80" height="40" as="geometry" />
        </mxCell>
        <mxCell id="9A1M-4sTBxTM3sOWAQV7-17" value="&lt;font style=&quot;font-size: 10px;&quot;&gt;PlayerPositions&lt;/font&gt;" style="shape=rhombus;perimeter=rhombusPerimeter;whiteSpace=wrap;html=1;align=center;" parent="1" vertex="1">
          <mxGeometry x="10" y="280" width="110" height="40" as="geometry" />
        </mxCell>
        <mxCell id="9A1M-4sTBxTM3sOWAQV7-19" value="" style="endArrow=none;html=1;rounded=0;entryX=0.5;entryY=1;entryDx=0;entryDy=0;" parent="1" source="9A1M-4sTBxTM3sOWAQV7-15" target="9A1M-4sTBxTM3sOWAQV7-17" edge="1">
          <mxGeometry width="50" height="50" relative="1" as="geometry">
            <mxPoint x="300" y="460" as="sourcePoint" />
            <mxPoint x="350" y="410" as="targetPoint" />
          </mxGeometry>
        </mxCell>
        <mxCell id="9A1M-4sTBxTM3sOWAQV7-21" value="" style="endArrow=none;html=1;rounded=0;entryX=1;entryY=0.5;entryDx=0;entryDy=0;exitX=0;exitY=0.5;exitDx=0;exitDy=0;strokeWidth=5;" parent="1" source="9A1M-4sTBxTM3sOWAQV7-8" target="9A1M-4sTBxTM3sOWAQV7-17" edge="1">
          <mxGeometry width="50" height="50" relative="1" as="geometry">
            <mxPoint x="410" y="460" as="sourcePoint" />
            <mxPoint x="460" y="410" as="targetPoint" />
          </mxGeometry>
        </mxCell>
        <mxCell id="9A1M-4sTBxTM3sOWAQV7-22" value="" style="endArrow=none;html=1;rounded=0;entryX=0.5;entryY=0;entryDx=0;entryDy=0;exitX=0.009;exitY=-0.01;exitDx=0;exitDy=0;exitPerimeter=0;" parent="1" source="9A1M-4sTBxTM3sOWAQV7-7" target="9A1M-4sTBxTM3sOWAQV7-8" edge="1">
          <mxGeometry width="50" height="50" relative="1" as="geometry">
            <mxPoint x="410" y="430" as="sourcePoint" />
            <mxPoint x="460" y="380" as="targetPoint" />
          </mxGeometry>
        </mxCell>
        <mxCell id="9A1M-4sTBxTM3sOWAQV7-23" value="" style="endArrow=none;html=1;rounded=0;entryX=0.5;entryY=0;entryDx=0;entryDy=0;exitX=0;exitY=0.5;exitDx=0;exitDy=0;" parent="1" source="9A1M-4sTBxTM3sOWAQV7-7" target="9A1M-4sTBxTM3sOWAQV7-10" edge="1">
          <mxGeometry width="50" height="50" relative="1" as="geometry">
            <mxPoint x="410" y="430" as="sourcePoint" />
            <mxPoint x="460" y="380" as="targetPoint" />
          </mxGeometry>
        </mxCell>
        <mxCell id="9A1M-4sTBxTM3sOWAQV7-26" value="" style="endArrow=none;html=1;rounded=0;entryX=0.5;entryY=0;entryDx=0;entryDy=0;exitX=0.009;exitY=1;exitDx=0;exitDy=0;exitPerimeter=0;" parent="1" source="9A1M-4sTBxTM3sOWAQV7-7" target="9A1M-4sTBxTM3sOWAQV7-9" edge="1">
          <mxGeometry width="50" height="50" relative="1" as="geometry">
            <mxPoint x="410" y="430" as="sourcePoint" />
            <mxPoint x="460" y="380" as="targetPoint" />
          </mxGeometry>
        </mxCell>
        <mxCell id="9A1M-4sTBxTM3sOWAQV7-27" value="" style="endArrow=none;html=1;rounded=0;entryX=0.5;entryY=1;entryDx=0;entryDy=0;exitX=1;exitY=0.5;exitDx=0;exitDy=0;" parent="1" source="9A1M-4sTBxTM3sOWAQV7-7" target="9A1M-4sTBxTM3sOWAQV7-2" edge="1">
          <mxGeometry width="50" height="50" relative="1" as="geometry">
            <mxPoint x="410" y="340" as="sourcePoint" />
            <mxPoint x="460" y="290" as="targetPoint" />
          </mxGeometry>
        </mxCell>
        <mxCell id="9A1M-4sTBxTM3sOWAQV7-29" value="Plays_in_match" style="shape=rhombus;perimeter=rhombusPerimeter;whiteSpace=wrap;html=1;align=center;" parent="1" vertex="1">
          <mxGeometry x="330" y="438" width="120" height="40" as="geometry" />
        </mxCell>
        <mxCell id="9A1M-4sTBxTM3sOWAQV7-31" value="" style="endArrow=none;html=1;rounded=0;exitX=0.5;exitY=0;exitDx=0;exitDy=0;" parent="1" source="9A1M-4sTBxTM3sOWAQV7-29" edge="1">
          <mxGeometry width="50" height="50" relative="1" as="geometry">
            <mxPoint x="365" y="380" as="sourcePoint" />
            <mxPoint x="390" y="320" as="targetPoint" />
          </mxGeometry>
        </mxCell>
        <mxCell id="9A1M-4sTBxTM3sOWAQV7-32" value="" style="endArrow=none;html=1;rounded=0;entryX=0.5;entryY=1;entryDx=0;entryDy=0;exitX=0.5;exitY=0;exitDx=0;exitDy=0;" parent="1" source="9A1M-4sTBxTM3sOWAQV7-11" target="9A1M-4sTBxTM3sOWAQV7-29" edge="1">
          <mxGeometry width="50" height="50" relative="1" as="geometry">
            <mxPoint x="280" y="498" as="sourcePoint" />
            <mxPoint x="330" y="448" as="targetPoint" />
          </mxGeometry>
        </mxCell>
        <mxCell id="9A1M-4sTBxTM3sOWAQV7-33" value="Located_in" style="shape=rhombus;perimeter=rhombusPerimeter;whiteSpace=wrap;html=1;align=center;" parent="1" vertex="1">
          <mxGeometry x="350" y="618" width="80" height="40" as="geometry" />
        </mxCell>
        <mxCell id="9A1M-4sTBxTM3sOWAQV7-35" value="" style="endArrow=classic;html=1;rounded=0;entryX=0.5;entryY=0;entryDx=0;entryDy=0;exitX=0.5;exitY=1;exitDx=0;exitDy=0;strokeWidth=5;" parent="1" source="9A1M-4sTBxTM3sOWAQV7-11" target="9A1M-4sTBxTM3sOWAQV7-33" edge="1">
          <mxGeometry width="50" height="50" relative="1" as="geometry">
            <mxPoint x="290" y="638" as="sourcePoint" />
            <mxPoint x="340" y="588" as="targetPoint" />
          </mxGeometry>
        </mxCell>
        <mxCell id="9A1M-4sTBxTM3sOWAQV7-36" value="" style="endArrow=none;html=1;rounded=0;entryX=0.5;entryY=0;entryDx=0;entryDy=0;exitX=0.5;exitY=1;exitDx=0;exitDy=0;" parent="1" source="9A1M-4sTBxTM3sOWAQV7-33" target="9A1M-4sTBxTM3sOWAQV7-13" edge="1">
          <mxGeometry width="50" height="50" relative="1" as="geometry">
            <mxPoint x="290" y="638" as="sourcePoint" />
            <mxPoint x="340" y="588" as="targetPoint" />
          </mxGeometry>
        </mxCell>
        <mxCell id="mBqI3M3A36pS66uR8SRv-10" style="edgeStyle=orthogonalEdgeStyle;rounded=0;orthogonalLoop=1;jettySize=auto;html=1;exitX=1;exitY=0.5;exitDx=0;exitDy=0;entryX=0;entryY=0;entryDx=0;entryDy=0;endArrow=none;endFill=0;" edge="1" parent="1" source="9A1M-4sTBxTM3sOWAQV7-37" target="9A1M-4sTBxTM3sOWAQV7-11">
          <mxGeometry relative="1" as="geometry">
            <Array as="points">
              <mxPoint x="320" y="458" />
              <mxPoint x="320" y="490" />
              <mxPoint x="350" y="490" />
            </Array>
          </mxGeometry>
        </mxCell>
        <mxCell id="9A1M-4sTBxTM3sOWAQV7-37" value="SessionSquads" style="shape=rhombus;perimeter=rhombusPerimeter;whiteSpace=wrap;html=1;align=center;" parent="1" vertex="1">
          <mxGeometry x="140" y="438" width="90" height="40" as="geometry" />
        </mxCell>
        <mxCell id="9A1M-4sTBxTM3sOWAQV7-43" value="" style="endArrow=none;html=1;rounded=0;entryX=1;entryY=0.5;entryDx=0;entryDy=0;exitX=0;exitY=0.5;exitDx=0;exitDy=0;" parent="1" source="9A1M-4sTBxTM3sOWAQV7-37" target="9A1M-4sTBxTM3sOWAQV7-15" edge="1">
          <mxGeometry width="50" height="50" relative="1" as="geometry">
            <mxPoint x="260" y="548" as="sourcePoint" />
            <mxPoint x="310" y="498" as="targetPoint" />
          </mxGeometry>
        </mxCell>
        <mxCell id="mBqI3M3A36pS66uR8SRv-4" style="edgeStyle=orthogonalEdgeStyle;rounded=0;orthogonalLoop=1;jettySize=auto;html=1;exitX=1;exitY=0.5;exitDx=0;exitDy=0;entryX=0;entryY=0.5;entryDx=0;entryDy=0;endArrow=none;endFill=0;" edge="1" parent="1" source="9A1M-4sTBxTM3sOWAQV7-44" target="9A1M-4sTBxTM3sOWAQV7-14">
          <mxGeometry relative="1" as="geometry" />
        </mxCell>
        <mxCell id="9A1M-4sTBxTM3sOWAQV7-44" value="MS-T-J" style="rhombus;whiteSpace=wrap;html=1;rounded=0;" parent="1" vertex="1">
          <mxGeometry x="471.25" y="518" width="80" height="40" as="geometry" />
        </mxCell>
        <mxCell id="9A1M-4sTBxTM3sOWAQV7-50" value="" style="endArrow=none;html=1;rounded=0;entryX=0.5;entryY=1;entryDx=0;entryDy=0;exitX=0.5;exitY=0;exitDx=0;exitDy=0;" parent="1" source="9A1M-4sTBxTM3sOWAQV7-44" target="9A1M-4sTBxTM3sOWAQV7-10" edge="1">
          <mxGeometry width="50" height="50" relative="1" as="geometry">
            <mxPoint x="400" y="470" as="sourcePoint" />
            <mxPoint x="450" y="420" as="targetPoint" />
          </mxGeometry>
        </mxCell>
        <mxCell id="9A1M-4sTBxTM3sOWAQV7-51" value="" style="endArrow=none;html=1;rounded=0;entryX=0;entryY=0.5;entryDx=0;entryDy=0;exitX=1;exitY=0.5;exitDx=0;exitDy=0;strokeWidth=5;" parent="1" source="9A1M-4sTBxTM3sOWAQV7-11" target="9A1M-4sTBxTM3sOWAQV7-44" edge="1">
          <mxGeometry width="50" height="50" relative="1" as="geometry">
            <mxPoint x="400" y="508" as="sourcePoint" />
            <mxPoint x="450" y="458" as="targetPoint" />
          </mxGeometry>
        </mxCell>
        <mxCell id="9A1M-4sTBxTM3sOWAQV7-52" value="Agrees" style="rhombus;whiteSpace=wrap;html=1;rounded=0;" parent="1" vertex="1">
          <mxGeometry x="590" y="380" width="80" height="40" as="geometry" />
        </mxCell>
        <mxCell id="9A1M-4sTBxTM3sOWAQV7-54" value="" style="endArrow=classic;html=1;rounded=0;entryX=0.5;entryY=1;entryDx=0;entryDy=0;strokeWidth=5;" parent="1" source="9A1M-4sTBxTM3sOWAQV7-14" target="9A1M-4sTBxTM3sOWAQV7-52" edge="1">
          <mxGeometry width="50" height="50" relative="1" as="geometry">
            <mxPoint x="450" y="490" as="sourcePoint" />
            <mxPoint x="500" y="440" as="targetPoint" />
          </mxGeometry>
        </mxCell>
        <mxCell id="9A1M-4sTBxTM3sOWAQV7-55" value="Appears" style="rhombus;whiteSpace=wrap;html=1;rounded=0;" parent="1" vertex="1">
          <mxGeometry x="590" y="575" width="80" height="50" as="geometry" />
        </mxCell>
        <mxCell id="9A1M-4sTBxTM3sOWAQV7-57" value="" style="endArrow=none;html=1;rounded=0;entryX=0.5;entryY=1;entryDx=0;entryDy=0;exitX=0.5;exitY=0;exitDx=0;exitDy=0;" parent="1" source="9A1M-4sTBxTM3sOWAQV7-12" target="9A1M-4sTBxTM3sOWAQV7-55" edge="1">
          <mxGeometry width="50" height="50" relative="1" as="geometry">
            <mxPoint x="450" y="650" as="sourcePoint" />
            <mxPoint x="500" y="600" as="targetPoint" />
          </mxGeometry>
        </mxCell>
        <mxCell id="9A1M-4sTBxTM3sOWAQV7-58" value="&lt;font style=&quot;font-size: 8px;&quot;&gt;&lt;u&gt;username&lt;/u&gt;&lt;/font&gt;" style="ellipse;whiteSpace=wrap;html=1;rounded=0;" parent="1" vertex="1">
          <mxGeometry x="410" width="40" height="40" as="geometry" />
        </mxCell>
        <mxCell id="9A1M-4sTBxTM3sOWAQV7-60" value="" style="edgeStyle=orthogonalEdgeStyle;rounded=0;orthogonalLoop=1;jettySize=auto;html=1;endArrow=none;endFill=0;exitX=0.13;exitY=0;exitDx=0;exitDy=0;exitPerimeter=0;" parent="1" source="9A1M-4sTBxTM3sOWAQV7-2" target="9A1M-4sTBxTM3sOWAQV7-61" edge="1">
          <mxGeometry relative="1" as="geometry">
            <mxPoint x="430" y="80" as="sourcePoint" />
          </mxGeometry>
        </mxCell>
        <mxCell id="9A1M-4sTBxTM3sOWAQV7-61" value="&lt;span style=&quot;font-size: 8px;&quot;&gt;password&lt;/span&gt;" style="ellipse;whiteSpace=wrap;html=1;rounded=0;" parent="1" vertex="1">
          <mxGeometry x="460" width="40" height="40" as="geometry" />
        </mxCell>
        <mxCell id="9A1M-4sTBxTM3sOWAQV7-62" value="" style="edgeStyle=orthogonalEdgeStyle;rounded=0;orthogonalLoop=1;jettySize=auto;html=1;endArrow=none;endFill=0;exitX=1;exitY=0.5;exitDx=0;exitDy=0;" parent="1" source="9A1M-4sTBxTM3sOWAQV7-2" target="9A1M-4sTBxTM3sOWAQV7-63" edge="1">
          <mxGeometry relative="1" as="geometry">
            <mxPoint x="571.25" y="80" as="sourcePoint" />
            <Array as="points">
              <mxPoint x="571" y="100" />
            </Array>
          </mxGeometry>
        </mxCell>
        <mxCell id="9A1M-4sTBxTM3sOWAQV7-63" value="&lt;span style=&quot;font-size: 8px;&quot;&gt;surname&lt;/span&gt;" style="ellipse;whiteSpace=wrap;html=1;rounded=0;" parent="1" vertex="1">
          <mxGeometry x="551.25" width="40" height="40" as="geometry" />
        </mxCell>
        <mxCell id="9A1M-4sTBxTM3sOWAQV7-64" value="&lt;font style=&quot;font-size: 8px;&quot;&gt;name&lt;/font&gt;" style="ellipse;whiteSpace=wrap;html=1;rounded=0;" parent="1" vertex="1">
          <mxGeometry x="506.25" width="40" height="40" as="geometry" />
        </mxCell>
        <mxCell id="9A1M-4sTBxTM3sOWAQV7-65" value="" style="endArrow=none;html=1;rounded=0;entryX=0.5;entryY=1;entryDx=0;entryDy=0;" parent="1" target="9A1M-4sTBxTM3sOWAQV7-64" edge="1">
          <mxGeometry width="50" height="50" relative="1" as="geometry">
            <mxPoint x="526" y="80" as="sourcePoint" />
            <mxPoint x="560" y="50" as="targetPoint" />
          </mxGeometry>
        </mxCell>
        <mxCell id="9A1M-4sTBxTM3sOWAQV7-66" value="&lt;u&gt;&lt;font style=&quot;font-size: 8px;&quot;&gt;position_id&lt;/font&gt;&lt;/u&gt;" style="ellipse;whiteSpace=wrap;html=1;rounded=0;" parent="1" vertex="1">
          <mxGeometry x="21" y="500" width="40" height="40" as="geometry" />
        </mxCell>
        <mxCell id="9A1M-4sTBxTM3sOWAQV7-68" value="" style="edgeStyle=orthogonalEdgeStyle;rounded=0;orthogonalLoop=1;jettySize=auto;html=1;endArrow=none;endFill=0;" parent="1" target="9A1M-4sTBxTM3sOWAQV7-69" edge="1">
          <mxGeometry relative="1" as="geometry">
            <mxPoint x="91" y="478" as="sourcePoint" />
          </mxGeometry>
        </mxCell>
        <mxCell id="9A1M-4sTBxTM3sOWAQV7-69" value="&lt;font style=&quot;font-size: 8px;&quot;&gt;position&lt;/font&gt;&lt;div&gt;&lt;font style=&quot;font-size: 8px;&quot;&gt;name&lt;/font&gt;&lt;/div&gt;" style="ellipse;whiteSpace=wrap;html=1;rounded=0;" parent="1" vertex="1">
          <mxGeometry x="71" y="538" width="40" height="40" as="geometry" />
        </mxCell>
        <mxCell id="9A1M-4sTBxTM3sOWAQV7-74" value="" style="edgeStyle=orthogonalEdgeStyle;rounded=0;orthogonalLoop=1;jettySize=auto;html=1;endArrow=none;endFill=0;" parent="1" source="9A1M-4sTBxTM3sOWAQV7-73" edge="1">
          <mxGeometry relative="1" as="geometry">
            <mxPoint x="540" y="320" as="targetPoint" />
          </mxGeometry>
        </mxCell>
        <mxCell id="9A1M-4sTBxTM3sOWAQV7-73" value="&lt;font style=&quot;font-size: 8px;&quot;&gt;nationality&lt;/font&gt;" style="ellipse;whiteSpace=wrap;html=1;" parent="1" vertex="1">
          <mxGeometry x="520" y="340" width="40" height="40" as="geometry" />
        </mxCell>
        <mxCell id="9A1M-4sTBxTM3sOWAQV7-75" value="" style="edgeStyle=orthogonalEdgeStyle;rounded=0;orthogonalLoop=1;jettySize=auto;html=1;endArrow=none;endFill=0;entryX=1;entryY=0.5;entryDx=0;entryDy=0;exitX=0;exitY=0.5;exitDx=0;exitDy=0;" parent="1" source="9A1M-4sTBxTM3sOWAQV7-76" target="9A1M-4sTBxTM3sOWAQV7-9" edge="1">
          <mxGeometry relative="1" as="geometry">
            <mxPoint x="717" y="260" as="targetPoint" />
            <mxPoint x="680" y="240" as="sourcePoint" />
            <Array as="points">
              <mxPoint x="680" y="300" />
              <mxPoint x="680" y="300" />
            </Array>
          </mxGeometry>
        </mxCell>
        <mxCell id="9A1M-4sTBxTM3sOWAQV7-76" value="&lt;font style=&quot;font-size: 8px;&quot;&gt;nationality&lt;/font&gt;" style="ellipse;whiteSpace=wrap;html=1;" parent="1" vertex="1">
          <mxGeometry x="697" y="280" width="40" height="40" as="geometry" />
        </mxCell>
        <mxCell id="9A1M-4sTBxTM3sOWAQV7-77" value="&lt;font style=&quot;font-size: 8px;&quot;&gt;height&lt;/font&gt;" style="ellipse;whiteSpace=wrap;html=1;" parent="1" vertex="1">
          <mxGeometry x="340" y="200" width="40" height="41.25" as="geometry" />
        </mxCell>
        <mxCell id="9A1M-4sTBxTM3sOWAQV7-78" value="" style="endArrow=none;html=1;rounded=0;entryX=0.5;entryY=1;entryDx=0;entryDy=0;exitX=0.13;exitY=-0.03;exitDx=0;exitDy=0;exitPerimeter=0;" parent="1" source="9A1M-4sTBxTM3sOWAQV7-8" target="9A1M-4sTBxTM3sOWAQV7-77" edge="1">
          <mxGeometry width="50" height="50" relative="1" as="geometry">
            <mxPoint x="360" y="277" as="sourcePoint" />
            <mxPoint x="450" y="240" as="targetPoint" />
          </mxGeometry>
        </mxCell>
        <mxCell id="9A1M-4sTBxTM3sOWAQV7-79" value="&lt;font style=&quot;font-size: 8px;&quot;&gt;weight&lt;/font&gt;" style="ellipse;whiteSpace=wrap;html=1;" parent="1" vertex="1">
          <mxGeometry x="310" y="150" width="40" height="41.25" as="geometry" />
        </mxCell>
        <mxCell id="9A1M-4sTBxTM3sOWAQV7-80" value="" style="endArrow=none;html=1;rounded=0;entryX=0.5;entryY=1;entryDx=0;entryDy=0;exitX=0;exitY=0.5;exitDx=0;exitDy=0;" parent="1" source="9A1M-4sTBxTM3sOWAQV7-8" target="9A1M-4sTBxTM3sOWAQV7-79" edge="1">
          <mxGeometry width="50" height="50" relative="1" as="geometry">
            <mxPoint x="340" y="270" as="sourcePoint" />
            <mxPoint x="490" y="240" as="targetPoint" />
          </mxGeometry>
        </mxCell>
        <mxCell id="9A1M-4sTBxTM3sOWAQV7-81" value="&lt;font style=&quot;font-size: 8px;&quot;&gt;dob&lt;/font&gt;" style="ellipse;whiteSpace=wrap;html=1;" parent="1" vertex="1">
          <mxGeometry x="400" y="198.75" width="40" height="41.25" as="geometry" />
        </mxCell>
        <mxCell id="9A1M-4sTBxTM3sOWAQV7-82" value="" style="endArrow=none;html=1;rounded=0;entryX=0.5;entryY=1;entryDx=0;entryDy=0;" parent="1" target="9A1M-4sTBxTM3sOWAQV7-81" edge="1">
          <mxGeometry width="50" height="50" relative="1" as="geometry">
            <mxPoint x="420" y="280" as="sourcePoint" />
            <mxPoint x="580" y="280" as="targetPoint" />
          </mxGeometry>
        </mxCell>
        <mxCell id="9A1M-4sTBxTM3sOWAQV7-83" value="&lt;font style=&quot;font-size: 8px;&quot;&gt;pos_list&lt;/font&gt;" style="ellipse;whiteSpace=wrap;html=1;" parent="1" vertex="1">
          <mxGeometry x="370" y="150" width="40" height="41.25" as="geometry" />
        </mxCell>
        <mxCell id="9A1M-4sTBxTM3sOWAQV7-84" value="" style="endArrow=none;html=1;rounded=0;entryX=0.5;entryY=1;entryDx=0;entryDy=0;exitX=0.5;exitY=0;exitDx=0;exitDy=0;" parent="1" edge="1">
          <mxGeometry width="50" height="50" relative="1" as="geometry">
            <mxPoint x="389.8" y="280" as="sourcePoint" />
            <mxPoint x="389.8" y="191.25" as="targetPoint" />
          </mxGeometry>
        </mxCell>
        <mxCell id="9A1M-4sTBxTM3sOWAQV7-85" value="&lt;font style=&quot;font-size: 8px;&quot;&gt;team_list&lt;/font&gt;" style="ellipse;whiteSpace=wrap;html=1;" parent="1" vertex="1">
          <mxGeometry x="290" y="198.75" width="40" height="41.25" as="geometry" />
        </mxCell>
        <mxCell id="9A1M-4sTBxTM3sOWAQV7-86" value="" style="endArrow=none;html=1;rounded=0;entryX=0.5;entryY=1;entryDx=0;entryDy=0;" parent="1" target="9A1M-4sTBxTM3sOWAQV7-85" edge="1">
          <mxGeometry width="50" height="50" relative="1" as="geometry">
            <mxPoint x="350" y="300" as="sourcePoint" />
            <mxPoint x="490" y="280" as="targetPoint" />
          </mxGeometry>
        </mxCell>
        <mxCell id="9A1M-4sTBxTM3sOWAQV7-87" value="&lt;font style=&quot;font-size: 8px;&quot;&gt;team_id&lt;/font&gt;" style="ellipse;whiteSpace=wrap;html=1;aspect=fixed;" parent="1" vertex="1">
          <mxGeometry x="690" y="470" width="40" height="40" as="geometry" />
        </mxCell>
        <mxCell id="9A1M-4sTBxTM3sOWAQV7-89" value="&lt;font style=&quot;font-size: 8px;&quot;&gt;team_name&lt;/font&gt;" style="ellipse;whiteSpace=wrap;html=1;" parent="1" vertex="1">
          <mxGeometry x="697" y="405" width="50" height="30" as="geometry" />
        </mxCell>
        <mxCell id="9A1M-4sTBxTM3sOWAQV7-94" style="edgeStyle=orthogonalEdgeStyle;rounded=0;orthogonalLoop=1;jettySize=auto;html=1;exitX=0;exitY=0.5;exitDx=0;exitDy=0;entryX=1;entryY=0;entryDx=0;entryDy=0;endArrow=none;endFill=0;" parent="1" source="9A1M-4sTBxTM3sOWAQV7-90" target="9A1M-4sTBxTM3sOWAQV7-14" edge="1">
          <mxGeometry relative="1" as="geometry">
            <Array as="points">
              <mxPoint x="660" y="455" />
              <mxPoint x="660" y="480" />
            </Array>
          </mxGeometry>
        </mxCell>
        <mxCell id="9A1M-4sTBxTM3sOWAQV7-90" value="&lt;font style=&quot;font-size: 8px;&quot;&gt;contract_start&lt;/font&gt;" style="ellipse;whiteSpace=wrap;html=1;" parent="1" vertex="1">
          <mxGeometry x="737" y="440" width="60" height="30" as="geometry" />
        </mxCell>
        <mxCell id="9A1M-4sTBxTM3sOWAQV7-91" value="&lt;font style=&quot;font-size: 8px;&quot;&gt;contract_finish&lt;/font&gt;" style="ellipse;whiteSpace=wrap;html=1;" parent="1" vertex="1">
          <mxGeometry x="737" y="500" width="60" height="30" as="geometry" />
        </mxCell>
        <mxCell id="9A1M-4sTBxTM3sOWAQV7-92" value="&lt;font style=&quot;font-size: 8px;&quot;&gt;coach_username&lt;/font&gt;" style="ellipse;whiteSpace=wrap;html=1;" parent="1" vertex="1">
          <mxGeometry x="687" y="530" width="70" height="30" as="geometry" />
        </mxCell>
        <mxCell id="9A1M-4sTBxTM3sOWAQV7-93" style="edgeStyle=orthogonalEdgeStyle;rounded=0;orthogonalLoop=1;jettySize=auto;html=1;entryX=0.892;entryY=-0.017;entryDx=0;entryDy=0;entryPerimeter=0;endArrow=none;endFill=0;" parent="1" source="9A1M-4sTBxTM3sOWAQV7-89" target="9A1M-4sTBxTM3sOWAQV7-14" edge="1">
          <mxGeometry relative="1" as="geometry">
            <Array as="points">
              <mxPoint x="650" y="420" />
              <mxPoint x="650" y="479" />
            </Array>
          </mxGeometry>
        </mxCell>
        <mxCell id="9A1M-4sTBxTM3sOWAQV7-96" style="edgeStyle=orthogonalEdgeStyle;rounded=0;orthogonalLoop=1;jettySize=auto;html=1;exitX=0;exitY=0.5;exitDx=0;exitDy=0;entryX=1;entryY=0.25;entryDx=0;entryDy=0;endArrow=none;endFill=0;" parent="1" source="9A1M-4sTBxTM3sOWAQV7-87" target="9A1M-4sTBxTM3sOWAQV7-14" edge="1">
          <mxGeometry relative="1" as="geometry" />
        </mxCell>
        <mxCell id="9A1M-4sTBxTM3sOWAQV7-97" style="edgeStyle=orthogonalEdgeStyle;rounded=0;orthogonalLoop=1;jettySize=auto;html=1;entryX=1.005;entryY=0.88;entryDx=0;entryDy=0;entryPerimeter=0;endArrow=none;endFill=0;" parent="1" source="9A1M-4sTBxTM3sOWAQV7-91" target="9A1M-4sTBxTM3sOWAQV7-14" edge="1">
          <mxGeometry relative="1" as="geometry" />
        </mxCell>
        <mxCell id="9A1M-4sTBxTM3sOWAQV7-98" style="edgeStyle=orthogonalEdgeStyle;rounded=0;orthogonalLoop=1;jettySize=auto;html=1;entryX=0.875;entryY=1.05;entryDx=0;entryDy=0;entryPerimeter=0;endArrow=none;endFill=0;" parent="1" source="9A1M-4sTBxTM3sOWAQV7-92" target="9A1M-4sTBxTM3sOWAQV7-14" edge="1">
          <mxGeometry relative="1" as="geometry" />
        </mxCell>
        <mxCell id="9A1M-4sTBxTM3sOWAQV7-99" value="&lt;font style=&quot;font-size: 8px;&quot;&gt;channel_id&lt;/font&gt;" style="ellipse;whiteSpace=wrap;html=1;" parent="1" vertex="1">
          <mxGeometry x="570" y="750" width="50" height="30" as="geometry" />
        </mxCell>
        <mxCell id="9A1M-4sTBxTM3sOWAQV7-100" value="&lt;font style=&quot;font-size: 8px;&quot;&gt;channel_name&lt;/font&gt;" style="ellipse;whiteSpace=wrap;html=1;" parent="1" vertex="1">
          <mxGeometry x="634" y="750" width="63" height="30" as="geometry" />
        </mxCell>
        <mxCell id="9A1M-4sTBxTM3sOWAQV7-103" value="" style="endArrow=none;html=1;rounded=0;entryX=0.25;entryY=1;entryDx=0;entryDy=0;exitX=0.568;exitY=-0.059;exitDx=0;exitDy=0;exitPerimeter=0;" parent="1" source="9A1M-4sTBxTM3sOWAQV7-99" target="9A1M-4sTBxTM3sOWAQV7-12" edge="1">
          <mxGeometry width="50" height="50" relative="1" as="geometry">
            <mxPoint x="530" y="740" as="sourcePoint" />
            <mxPoint x="580" y="690" as="targetPoint" />
          </mxGeometry>
        </mxCell>
        <mxCell id="9A1M-4sTBxTM3sOWAQV7-104" value="" style="endArrow=none;html=1;rounded=0;entryX=0.75;entryY=1;entryDx=0;entryDy=0;exitX=0.372;exitY=0.068;exitDx=0;exitDy=0;exitPerimeter=0;" parent="1" source="9A1M-4sTBxTM3sOWAQV7-100" target="9A1M-4sTBxTM3sOWAQV7-12" edge="1">
          <mxGeometry width="50" height="50" relative="1" as="geometry">
            <mxPoint x="530" y="740" as="sourcePoint" />
            <mxPoint x="580" y="690" as="targetPoint" />
          </mxGeometry>
        </mxCell>
        <mxCell id="9A1M-4sTBxTM3sOWAQV7-105" value="&lt;font style=&quot;font-size: 8px;&quot;&gt;stadium_id&lt;/font&gt;" style="ellipse;whiteSpace=wrap;html=1;" parent="1" vertex="1">
          <mxGeometry x="313" y="778" width="50" height="30" as="geometry" />
        </mxCell>
        <mxCell id="9A1M-4sTBxTM3sOWAQV7-106" value="&lt;font style=&quot;font-size: 8px;&quot;&gt;stadium_name&lt;/font&gt;" style="ellipse;whiteSpace=wrap;html=1;" parent="1" vertex="1">
          <mxGeometry x="377" y="778" width="63" height="30" as="geometry" />
        </mxCell>
        <mxCell id="9A1M-4sTBxTM3sOWAQV7-107" value="" style="endArrow=none;html=1;rounded=0;entryX=0.25;entryY=1;entryDx=0;entryDy=0;exitX=0.568;exitY=-0.059;exitDx=0;exitDy=0;exitPerimeter=0;" parent="1" source="9A1M-4sTBxTM3sOWAQV7-105" edge="1">
          <mxGeometry width="50" height="50" relative="1" as="geometry">
            <mxPoint x="273" y="768" as="sourcePoint" />
            <mxPoint x="353" y="748" as="targetPoint" />
          </mxGeometry>
        </mxCell>
        <mxCell id="9A1M-4sTBxTM3sOWAQV7-108" value="" style="endArrow=none;html=1;rounded=0;entryX=0.75;entryY=1;entryDx=0;entryDy=0;exitX=0.372;exitY=0.068;exitDx=0;exitDy=0;exitPerimeter=0;" parent="1" source="9A1M-4sTBxTM3sOWAQV7-106" edge="1">
          <mxGeometry width="50" height="50" relative="1" as="geometry">
            <mxPoint x="273" y="768" as="sourcePoint" />
            <mxPoint x="393" y="748" as="targetPoint" />
          </mxGeometry>
        </mxCell>
        <mxCell id="9A1M-4sTBxTM3sOWAQV7-109" value="&lt;span style=&quot;font-size: 8px;&quot;&gt;country&lt;/span&gt;" style="ellipse;whiteSpace=wrap;html=1;" parent="1" vertex="1">
          <mxGeometry x="437" y="748" width="63" height="30" as="geometry" />
        </mxCell>
        <mxCell id="9A1M-4sTBxTM3sOWAQV7-110" value="" style="endArrow=none;html=1;rounded=0;entryX=1;entryY=0.5;entryDx=0;entryDy=0;exitX=0.372;exitY=0.068;exitDx=0;exitDy=0;exitPerimeter=0;" parent="1" source="9A1M-4sTBxTM3sOWAQV7-109" target="9A1M-4sTBxTM3sOWAQV7-13" edge="1">
          <mxGeometry width="50" height="50" relative="1" as="geometry">
            <mxPoint x="333" y="738" as="sourcePoint" />
            <mxPoint x="453" y="718" as="targetPoint" />
          </mxGeometry>
        </mxCell>
        <mxCell id="9A1M-4sTBxTM3sOWAQV7-111" value="date" style="ellipse;whiteSpace=wrap;html=1;fontSize=8;" parent="1" vertex="1">
          <mxGeometry x="250" y="488" width="26" height="20" as="geometry" />
        </mxCell>
        <mxCell id="9A1M-4sTBxTM3sOWAQV7-112" value="time_slot" style="ellipse;whiteSpace=wrap;html=1;fontSize=8;" parent="1" vertex="1">
          <mxGeometry x="250" y="518" width="40" height="20" as="geometry" />
        </mxCell>
        <mxCell id="9A1M-4sTBxTM3sOWAQV7-113" value="rating" style="ellipse;whiteSpace=wrap;html=1;fontSize=8;" parent="1" vertex="1">
          <mxGeometry x="254" y="578" width="30" height="20" as="geometry" />
        </mxCell>
        <mxCell id="9A1M-4sTBxTM3sOWAQV7-115" value="aju" style="ellipse;whiteSpace=wrap;html=1;fontSize=8;" parent="1" vertex="1">
          <mxGeometry x="255" y="548" width="30" height="20" as="geometry" />
        </mxCell>
        <mxCell id="9A1M-4sTBxTM3sOWAQV7-116" value="ppul" style="ellipse;whiteSpace=wrap;html=1;fontSize=8;" parent="1" vertex="1">
          <mxGeometry x="280" y="608" width="30" height="20" as="geometry" />
        </mxCell>
        <mxCell id="9A1M-4sTBxTM3sOWAQV7-117" value="sid" style="ellipse;whiteSpace=wrap;html=1;fontSize=8;" parent="1" vertex="1">
          <mxGeometry x="283" y="478" width="30" height="20" as="geometry" />
        </mxCell>
        <mxCell id="9A1M-4sTBxTM3sOWAQV7-118" value="tid" style="ellipse;whiteSpace=wrap;html=1;fontSize=8;" parent="1" vertex="1">
          <mxGeometry x="323" y="608" width="30" height="20" as="geometry" />
        </mxCell>
        <mxCell id="9A1M-4sTBxTM3sOWAQV7-119" value="" style="endArrow=none;html=1;rounded=0;entryX=0.5;entryY=1;entryDx=0;entryDy=0;exitX=0;exitY=0;exitDx=0;exitDy=0;" parent="1" source="9A1M-4sTBxTM3sOWAQV7-11" target="9A1M-4sTBxTM3sOWAQV7-117" edge="1">
          <mxGeometry width="50" height="50" relative="1" as="geometry">
            <mxPoint x="390" y="578" as="sourcePoint" />
            <mxPoint x="440" y="528" as="targetPoint" />
          </mxGeometry>
        </mxCell>
        <mxCell id="9A1M-4sTBxTM3sOWAQV7-120" value="" style="endArrow=none;html=1;rounded=0;entryX=0.949;entryY=0.933;entryDx=0;entryDy=0;entryPerimeter=0;exitX=0;exitY=0.25;exitDx=0;exitDy=0;" parent="1" source="9A1M-4sTBxTM3sOWAQV7-11" target="9A1M-4sTBxTM3sOWAQV7-111" edge="1">
          <mxGeometry width="50" height="50" relative="1" as="geometry">
            <mxPoint x="390" y="578" as="sourcePoint" />
            <mxPoint x="440" y="528" as="targetPoint" />
          </mxGeometry>
        </mxCell>
        <mxCell id="9A1M-4sTBxTM3sOWAQV7-122" value="" style="endArrow=none;html=1;rounded=0;entryX=1;entryY=0.5;entryDx=0;entryDy=0;exitX=0;exitY=0.5;exitDx=0;exitDy=0;" parent="1" source="9A1M-4sTBxTM3sOWAQV7-11" target="9A1M-4sTBxTM3sOWAQV7-112" edge="1">
          <mxGeometry width="50" height="50" relative="1" as="geometry">
            <mxPoint x="390" y="578" as="sourcePoint" />
            <mxPoint x="440" y="528" as="targetPoint" />
          </mxGeometry>
        </mxCell>
        <mxCell id="9A1M-4sTBxTM3sOWAQV7-126" value="" style="endArrow=none;html=1;rounded=0;entryX=1;entryY=0.5;entryDx=0;entryDy=0;exitX=0;exitY=0.75;exitDx=0;exitDy=0;" parent="1" source="9A1M-4sTBxTM3sOWAQV7-11" target="9A1M-4sTBxTM3sOWAQV7-115" edge="1">
          <mxGeometry width="50" height="50" relative="1" as="geometry">
            <mxPoint x="390" y="578" as="sourcePoint" />
            <mxPoint x="440" y="528" as="targetPoint" />
          </mxGeometry>
        </mxCell>
        <mxCell id="9A1M-4sTBxTM3sOWAQV7-127" value="" style="endArrow=none;html=1;rounded=0;entryX=1;entryY=0.317;entryDx=0;entryDy=0;entryPerimeter=0;exitX=0;exitY=1;exitDx=0;exitDy=0;" parent="1" source="9A1M-4sTBxTM3sOWAQV7-11" target="9A1M-4sTBxTM3sOWAQV7-113" edge="1">
          <mxGeometry width="50" height="50" relative="1" as="geometry">
            <mxPoint x="390" y="578" as="sourcePoint" />
            <mxPoint x="440" y="528" as="targetPoint" />
          </mxGeometry>
        </mxCell>
        <mxCell id="9A1M-4sTBxTM3sOWAQV7-128" value="" style="endArrow=none;html=1;rounded=0;exitX=1;exitY=0;exitDx=0;exitDy=0;entryX=0.129;entryY=1.025;entryDx=0;entryDy=0;entryPerimeter=0;" parent="1" source="9A1M-4sTBxTM3sOWAQV7-116" target="9A1M-4sTBxTM3sOWAQV7-11" edge="1">
          <mxGeometry width="50" height="50" relative="1" as="geometry">
            <mxPoint x="390" y="578" as="sourcePoint" />
            <mxPoint x="440" y="528" as="targetPoint" />
          </mxGeometry>
        </mxCell>
        <mxCell id="9A1M-4sTBxTM3sOWAQV7-129" value="" style="endArrow=none;html=1;rounded=0;entryX=0.308;entryY=1.067;entryDx=0;entryDy=0;entryPerimeter=0;exitX=1;exitY=0;exitDx=0;exitDy=0;" parent="1" source="9A1M-4sTBxTM3sOWAQV7-118" target="9A1M-4sTBxTM3sOWAQV7-11" edge="1">
          <mxGeometry width="50" height="50" relative="1" as="geometry">
            <mxPoint x="390" y="578" as="sourcePoint" />
            <mxPoint x="440" y="528" as="targetPoint" />
          </mxGeometry>
        </mxCell>
        <mxCell id="mBqI3M3A36pS66uR8SRv-8" style="edgeStyle=orthogonalEdgeStyle;rounded=0;orthogonalLoop=1;jettySize=auto;html=1;exitX=0.5;exitY=1;exitDx=0;exitDy=0;entryX=0;entryY=0.25;entryDx=0;entryDy=0;strokeWidth=5;endArrow=none;endFill=0;" edge="1" parent="1" source="mBqI3M3A36pS66uR8SRv-5" target="9A1M-4sTBxTM3sOWAQV7-14">
          <mxGeometry relative="1" as="geometry" />
        </mxCell>
        <mxCell id="mBqI3M3A36pS66uR8SRv-5" value="PlayerTeams" style="shape=rhombus;perimeter=rhombusPerimeter;whiteSpace=wrap;html=1;align=center;" vertex="1" parent="1">
          <mxGeometry x="410" y="350" width="100" height="40" as="geometry" />
        </mxCell>
        <mxCell id="mBqI3M3A36pS66uR8SRv-6" style="edgeStyle=orthogonalEdgeStyle;rounded=0;orthogonalLoop=1;jettySize=auto;html=1;exitX=0.5;exitY=1;exitDx=0;exitDy=0;" edge="1" parent="1" source="mBqI3M3A36pS66uR8SRv-5" target="mBqI3M3A36pS66uR8SRv-5">
          <mxGeometry relative="1" as="geometry" />
        </mxCell>
      </root>
    </mxGraphModel>
  </diagram>
</mxfile>
